<svg fill="#540907" height="24" viewBox="0 0 24 24" width="24" xmlns="http://www.w3.org/2000/svg" xmlns:xlink="http://www.w3.org/1999/xlink"><defs><path id="a" d="m0 0h24v24h-24z"/></defs><path d="m7.03425775 21.4544666c-1.01141925 0-1.76998369-.2496386-2.27569331-.7489159-.50570963-.4992772-.75856444-1.2481931-.75856444-2.2467476v-14.46313961c0-.99219428.25285481-1.7395201.75856444-2.24197745.50570962-.50245736 1.26427406-.75368604 2.27569331-.75368604h10.39477975c1.0114193 0 1.7699837.24963862 2.2756933.74891587.5057097.49927725.7585645 1.24819312.7585645 2.24674762v10.32263661c-.2088092-.3052906-.4453508-.5819601-.7096248-.8300087-.2642741-.2480486-.553018-.4674761-.8662317-.6582827v-8.81526455c0-.47065626-.1337683-.83477884-.401305-1.09236774s-.6460033-.38638335-1.1353997-.38638335h-10.23817293c-.50897226 0-.89233279.12879445-1.15008156.38638335-.25774878.2575889-.38662317.62171148-.38662317 1.09236774v14.42497835c0 .4706562.12887439.8347788.38662317 1.0923677.25774877.2575889.6411093.3863833 1.15008156.3863833h4.54159873c.1957585.3052906.4225122.5883204.680261.8490894s.54323.4897369.8564437.6869037zm1.48776509-15.02601907c-.17618271 0-.32137031-.05883203-.43556281-.1764961-.11419249-.11766406-.17128874-.25917895-.17128874-.42454467 0-.15900549.05709625-.29416016.17128874-.405464.1141925-.11130385.2593801-.16695577.43556281-.16695577h7.42903756c.1696574 0 .3115823.05565192.4257748.16695577.1141925.11130384.1712888.24645851.1712888.405464 0 .16536572-.0570963.30688061-.1712888.42454467-.1141925.11766407-.2561174.1764961-.4257748.1764961zm0 3.32003469c-.17618271 0-.32137031-.05724198-.43556281-.17172593-.11419249-.11448396-.17128874-.25440879-.17128874-.4197745 0-.16536572.05709625-.30370049.17128874-.41500434.1141925-.11130384.2593801-.16695577.43556281-.16695577h7.42903756c.1696574 0 .3115823.05565193.4257748.16695577.1141925.11130385.1712888.24963862.1712888.41500434 0 .16536571-.0570963.30529054-.1712888.4197745-.1141925.11448395-.2561174.17172593-.4257748.17172593zm7.51712886 11.22896788c-.7177814 0-1.3768352-.173316-1.9771615-.5199479-.6003263-.346632-1.0783034-.8125181-1.4339315-1.3976583-.355628-.5851402-.5334421-1.2307025-.5334421-1.9366869s.1778141-1.3499567.5334421-1.9319168c.3556281-.5819601.8336052-1.0462561 1.4339315-1.3928881.6003263-.3466319 1.2593801-.5199479 1.9771615-.5199479.7243067 0 1.3849919.173316 1.9820555.5199479.5970636.346632 1.0734094.810928 1.4290375 1.3928881s.5334421 1.2259324.5334421 1.9319168-.177814 1.3515467-.5334421 1.9366869-.8319739 1.0510263-1.4290375 1.3976583c-.5970636.3466319-1.2577488.5199479-1.9820555.5199479zm0-1.2784041c.4828711 0 .9233279-.1176641 1.3213703-.3529922.3980424-.2353282.7161501-.5469789.954323-.9349523s.3572594-.8172883.3572594-1.2879445c0-.4642961-.1190865-.8904308-.3572594-1.2784042s-.5562806-.6980341-.954323-.9301821-.8384992-.348222-1.3213703-.348222c-.4763458 0-.91354.116074-1.3115824.348222s-.7177814.5422087-.9592169.9301821c-.2414356.3879734-.3621534.8141081-.3621534 1.2784042 0 .4706562.1207178.8999711.3621534 1.2879445.2414355.3879734.5611745.6996241.9592169.9349523.3980424.2353281.8352366.3529922 1.3115824.3529922zm5.1680261 3.300954c-.2479608 0-.4730832-.0954033-.675367-.2862099l-2.5546493-2.4709453 1.1941272-1.1257589 2.5546493 2.5091066c.0783034.0763227.1435563.1637757.1957586.2623591s.0783034.201937.0783034.3100607c0 .2353281-.0750408.4277248-.2251223.57719-.1500816.1494651-.3393149.2241977-.5676999.2241977z" xlink:href="#a"/></svg>