<svg fill="#540907" height="24" viewBox="0 0 24 24" width="24" xmlns="http://www.w3.org/2000/svg" xmlns:xlink="http://www.w3.org/1999/xlink"><defs><path id="a" d="m0 0h24v24h-24z"/></defs><path d="m13.5583127 17c-.4367246 0-.8354012-.1081425-1.1960298-.3244275s-.6501241-.5057741-.8684864-.8684674-.3275434-.7636524-.3275434-1.2028773.1091811-.840184.3275434-1.2028772c.2183623-.3626933.5078578-.6521825.8684864-.8684675.3606286-.2162849.7593052-.3244274 1.1960298-.3244274.4367245 0 .8354011.1081425 1.1960297.3244274.3606287.216285.6484698.5057742.8635236.8684675.2150538.3626932.3225807.7636523.3225807 1.2028772s-.1075269.840184-.3225807 1.2028773-.5028949.6521824-.8635236.8684674c-.3606286.216285-.7593052.3244275-1.1960297.3244275zm0-1.2278332c.3242349 0 .598842-.1131337.8238213-.3394011s.337469-.5024467.337469-.8285379c0-.3327461-.1124897-.6105891-.337469-.833529s-.4995864-.3344099-.8238213-.3344099-.5988421.11147-.8238214.3344099-.337469.5007829-.337469.833529c0 .3260912.1124897.6022705.337469.8285379s.4995865.3394011.8238214.3394011zm-1.5781638-1.9765121v1.6071639h-11.18610423c-.21836229 0-.40529364-.0781954-.56079405-.2345861s-.23325062-.3443922-.23325062-.5640047c0-.2262673.07775021-.4175964.23325062-.573987.15550041-.1563907.34243176-.2345861.56079405-.2345861zm7.2555831 0c.2051282 0 .3837883.0781954.5359802.2345861.1521919.1563906.2282878.3477197.2282878.573987 0 .2196125-.0760959.407614-.2282878.5640047s-.330852.2345861-.5359802.2345861h-3.9503722v-1.6071639zm-12.68486351-2.884909c-.43672457 0-.83540116-.1098062-1.19602978-.3294186-.36062862-.2196125-.64846981-.5107653-.86352357-.87345863-.21505377-.36269329-.32258065-.76365238-.32258065-1.20287728s.10752688-.84018399.32258065-1.20287727c.21505376-.36269329.50289495-.65218243.86352357-.86846741.36062862-.21628499.75930521-.32442748 1.19602978-.32442748.43672456 0 .83540115.10814249 1.19602977.32442748.36062862.21628498.64846981.50577412.86352358.86846741.21505376.36269328.32258064.76365237.32258064 1.20287727s-.10752688.84018399-.32258064 1.20287728c-.21505377.36269333-.50289496.65384613-.86352358.87345863-.36062862.2196124-.75930521.3294186-1.19602977.3294186zm0-1.23781558c.33085194 0 .60711331-.11313368.82878412-.33940105.2216708-.22626737.3325062-.50244667.3325062-.82853788 0-.33274613-.1108354-.61058915-.3325062-.83352906-.22167081-.22293991-.49793218-.33440987-.82878412-.33440987-.32423491 0-.59884202.11146996-.82382134.33440987-.22497933.22293991-.33746899.50078293-.33746899.83352906 0 .32609121.11248966.60227051.33746899.82853788.22497932.22626737.49958643.33940105.82382134.33940105zm-5.79652606-1.97651203h4.08933003v1.60716382h-4.08933003c-.19851116 0-.37386269-.07653161-.52605459-.22959483-.15219189-.15306322-.22828784-.34272852-.22828784-.56899589s.07609595-.4175964.22828784-.57398708c.1521919-.15639068.32754343-.23458602.52605459-.23458602zm18.44168737 0c.2249793 0 .4152192.07819534.5707196.23458602s.2332506.34771971.2332506.57398708-.0777502.41593267-.2332506.56899589-.3457403.22959483-.5707196.22959483h-11.06699754v-1.60716382zm-5.6377171-2.89489137c-.4367246 0-.8354012-.1081425-1.1960298-.32442748-.3606286-.21628499-.6501241-.50577413-.8684864-.86846741-.2183623-.36269329-.3275434-.76365238-.3275434-1.20287728s.1091811-.84018399.3275434-1.20287727c.2183623-.36269329.5078578-.65384616.8684864-.87345861.3606286-.21961245.7593052-.32941867 1.1960298-.32941867.4367245 0 .8354011.10980622 1.1960297.32941867.3606287.21961245.6484698.51076532.8635236.87345861.2150538.36269328.3225807.76365237.3225807 1.20287727s-.1075269.84018399-.3225807 1.20287728c-.2150538.36269328-.5028949.65218242-.8635236.86846741-.3606286.21628498-.7593052.32442748-1.1960297.32442748zm0-1.22783324c.3242349 0 .598842-.11479741.8238213-.34439225.2249793-.22959483.337469-.50743785.337469-.83352906s-.1124897-.60227051-.337469-.82853788-.4995864-.33940105-.8238213-.33940105-.5988421.11313368-.8238214.33940105-.337469.50244667-.337469.82853788.1124897.60393423.337469.83352906c.2249793.22959484.4995865.34439225.8238214.34439225zm-1.528536-1.96652965v1.60716383h-11.23573203c-.21836229 0-.40529364-.07819534-.56079405-.23458603-.15550041-.15639068-.23325062-.34771971-.23325062-.57398708 0-.21961245.07775021-.40761401.23325062-.5640047.15550041-.15639068.34243176-.23458602.56079405-.23458602zm7.2059553 0c.2051282 0 .3837883.07819534.5359802.23458602.1521919.15639069.2282878.34439225.2282878.5640047 0 .22626737-.0760959.4175964-.2282878.57398708-.1521919.15639069-.330852.23458603-.5359802.23458603h-4.08933v-1.60716383z" transform="translate(2 3)" xlink:href="#a"/></svg>