<svg fill="#540907" height="24" viewBox="0 0 24 24" width="24" xmlns="http://www.w3.org/2000/svg" xmlns:xlink="http://www.w3.org/1999/xlink"><defs><path id="a" d="m0 0h24v24h-24z"/></defs><path d="m6.54296875 12.3789062c0-.1236979.05208333-.2473958.15625-.3710937l5.09765625-6.39648437c.1302083-.15625.2718099-.2327474.4248047-.22959184.1529948.00335486.2718099.06683142.3564453.19052934.0846354.12369791.0878906.28320312.0097656.47851562l-1.6699218 4.52148435h3.1445312c.1171875 0 .218099.0374349.3027344.1123047s.1269531.1708985.1269531.2880859c0 .123698-.0520833.2473959-.15625.3710938l-5.09765625 6.3964844c-.13020833.15625-.2718099.2327474-.42480469.2295918-.15299479-.0033548-.2734375-.0668314-.36132812-.1905293-.08789063-.1236979-.09277344-.2864584-.01464844-.4882813l1.6796875-4.5117187h-3.15429688c-.1171875 0-.21647135-.0374349-.29785156-.1123047s-.12207031-.1708984-.12207031-.288086zm4.06250005 9.6972657c-.078125 0-.1757813-.0162761-.2929688-.0488281-.1171875-.0325521-.2376302-.0813803-.36132812-.1464844-1.38671876-.78125-2.55696615-1.4746094-3.51074219-2.0800782-.95377604-.6054687-1.72037761-1.1914062-2.29980469-1.7578124-.57942708-.5664063-.99934896-1.1783855-1.25976562-1.8359376-.26041667-.657552-.390625-1.4322916-.390625-2.3242187v-7.47070312c0-.51432292.10904947-.88378907.32714843-1.10839844.21809896-.22460938.53222657-.42154948.94238281-.59082032.22786459-.09765624.5436198-.22460937.94726563-.38085937s.84960937-.32552083 1.33789063-.5078125c.48828124-.18229167.97493489-.36295573 1.45996093-.54199219s.92936198-.33854166 1.33300781-.47851562c.40364584-.13997396.72265626-.24251302.95703126-.30761719.13020833-.03255208.26367192-.06510417.40039062-.09765625s.2734375-.04882812.4101563-.04882812c.1367187 0 .2750651.01464843.415039.04394531.139974.02929687.2750651.06347656.4052734.10253906.2278646.078125.5436198.18880208.9472657.33203125.4036458.14322917.8496093.30273438 1.3378906.47851562.4882813.17578126.9749349.35319011 1.4599609.53222657.4850261.17903646.929362.34505208 1.3330078.49804687.4036459.15299479.7194011.27832032.9472657.37597656.4166666.17578126.7324219.37434896.9472656.59570313s.3222656.58919271.3222656 1.10351563v7.47070312c0 .8919271-.1285807 1.6682943-.3857422 2.3291016-.2571614.6608073-.6754557 1.274414-1.2548828 1.8408203-.5794271.5664062-1.3460286 1.1507161-2.2998047 1.7529297-.953776.6022135-2.1272786 1.2939453-3.5205078 2.0751953-.1236979.0651041-.2441406.1139323-.3613281.1464844-.1171875.032552-.2148437.0488281-.2929687.0488281zm0-1.7675781c.078125 0 .1627604-.0179037.2539062-.053711s.2083333-.0960286.3515625-.180664c1.1263021-.6835938 2.0719401-1.2727865 2.8369141-1.7675782.7649739-.4947916 1.3769531-.9635416 1.8359375-1.40625.4589843-.4427083.7877604-.9277344.9863281-1.4550781s.2978516-1.1686198.2978516-1.9238281v-6.80664065c0-.16276042-.0211589-.28645833-.0634766-.37109375s-.1285807-.14973958-.2587891-.1953125c-.3059896-.10416667-.6559245-.22623698-1.0498047-.36621094s-.8072916-.28808594-1.2402343-.44433594-.8658855-.3141276-1.2988282-.47363281-.8447265-.3125-1.2353515-.45898437c-.390625-.14648438-.7324219-.27832032-1.0253906-.39550782-.078125-.03255208-.1497396-.05533854-.2148438-.06835937s-.1236979-.01953125-.1757812-.01953125c-.0520834 0-.1106771.00651042-.1757813.01953125s-.1367187.03580729-.2148437.06835937c-.2929688.1171875-.63476568.24739584-1.02539068.390625-.390625.14322917-.80403645.29134115-1.24023437.44433594s-.87239583.30761719-1.30859375.46386719-.84960938.30598958-1.24023438.44921875-.73242187.2734375-1.02539062.390625c-.13671875.05208333-.22623698.1188151-.26855469.20019531s-.06347656.20345052-.06347656.36621094v6.80664065c0 .7552083.10091146 1.3964844.30273437 1.9238281.20182292.5273437.53059896 1.0139974.98632813 1.4599609.45572917.4459636 1.06608073.9147136 1.83105469 1.40625.76497396.4915365 1.71061198 1.0791016 2.83691406 1.7626954.1432292.0846354.2604167.1448567.3515625.180664s.1757813.053711.2539063.053711z" transform="translate(1)" xlink:href="#a"/></svg>