<svg fill="#ffb51b" height="28" viewBox="0 0 28 28" width="28" xmlns="http://www.w3.org/2000/svg" xmlns:xlink="http://www.w3.org/1999/xlink"><defs><path id="a" d="m0 0h28v28h-28z"/></defs><path d="m14 28c-1.930719 0-3.7424837-.3637255-5.43529412-1.0911765-1.69281046-.727451-3.17973856-1.7316993-4.46078431-3.0127451-1.28104575-1.2810457-2.28529412-2.7679738-3.0127451-4.4607843-.72745098-1.6928104-1.09117647-3.5045751-1.09117647-5.4352941s.36372549-3.7424837 1.09117647-5.43529412c.72745098-1.69281046 1.73169935-3.18202614 3.0127451-4.46764706 1.28104575-1.28562091 2.76797385-2.28986928 4.46078431-3.01274509 1.69281042-.72287582 3.50457512-1.08431373 5.43529412-1.08431373s3.7424837.36143791 5.4352941 1.08431373c1.6928105.72287581 3.1797386 1.72712418 4.4607843 3.01274509 1.2810458 1.28562092 2.2852941 2.7748366 3.0127451 4.46764706.727451 1.69281042 1.0911765 3.50457512 1.0911765 5.43529412s-.3637255 3.7424837-1.0911765 5.4352941c-.727451 1.6928105-1.7316993 3.1797386-3.0127451 4.4607843-1.2810457 1.2810458-2.7679738 2.2852941-4.4607843 3.0127451-1.6928104.727451-3.5045751 1.0911765-5.4352941 1.0911765zm0-2.3333333c1.6104575 0 3.1202614-.3019608 4.5294118-.9058824 1.4091503-.6039216 2.6490196-1.4411765 3.7196078-2.5117647s1.9078431-2.3104575 2.5117647-3.7196078c.6039216-1.4091504.9058824-2.9189543.9058824-4.5294118s-.3019608-3.122549-.9058824-4.53627451c-.6039216-1.41372549-1.4411765-2.65359477-2.5117647-3.71960784s-2.3104575-1.9009804-3.7196078-2.50490196c-1.4091504-.60392157-2.9189543-.90588236-4.5294118-.90588236s-3.1202614.30196079-4.52941176.90588236c-1.40915033.60392156-2.64901961 1.43888889-3.71960785 2.50490196-1.07058823 1.06601307-1.90784314 2.30588235-2.5117647 3.71960784-.60392157 1.41372551-.90588236 2.92581701-.90588236 4.53627451s.30196079 3.1202614.90588236 4.5294118c.60392156 1.4091503 1.44117647 2.6490196 2.5117647 3.7196078 1.07058824 1.0705882 2.31045752 1.9078431 3.71960785 2.5117647 1.40915036.6039216 2.91895426.9058824 4.52941176.9058824zm-5.75098039-5.9843138c-.68627451 0-1.20326798-.1715686-1.55098039-.5147058-.34771242-.3431373-.52156863-.8578432-.52156863-1.5441177v-5.1058823h15.61960781v5.1058823c0 .6862745-.1738562 1.2009804-.5215686 1.5441177-.3477124.3431372-.8647059.5147058-1.5509804.5147058zm.64509804-2.0588235h1.63333335c.4300653 0 .645098-.2150327.645098-.645098v-1.2215687c0-.4300653-.2150327-.645098-.645098-.645098h-1.63333335c-.43006536 0-.64509804.2150327-.64509804.645098v1.2215687c0 .4300653.21503268.645098.64509804.645098zm-2.71764706-6.6294118v-.6039215c0-.68627453.17385621-1.20098041.52156863-1.54411767.34771241-.34313725.86470588-.51470588 1.55098039-.51470588h11.47450979c.6862745 0 1.203268.17156863 1.5509804.51470588.3477124.34313726.5215686.85784314.5215686 1.54411767v.6039215z" xlink:href="#a"/></svg>