<svg fill="#ffb51b" height="28" viewBox="0 0 28 28" width="28" xmlns="http://www.w3.org/2000/svg" xmlns:xlink="http://www.w3.org/1999/xlink"><defs><path id="a" d="m0 0h28v28h-28z"/></defs><path d="m14 28c7.733469 0 14-6.2807731 14-14 0-7.73346897-6.266531-14-14-14-7.73346897 0-14 6.26653103-14 14 0 7.7192269 6.26653103 14 14 14zm0-2.948118c-6.10986775 0-11.05188199-4.9420142-11.05188199-11.051882 0-6.10986775 4.94201424-11.05188199 11.05188199-11.05188199 6.1098678 0 11.051882 4.94201424 11.051882 11.05188199 0 6.1098678-4.9420142 11.051882-11.051882 11.051882zm-.0142421-10.4679552c.1993896 0 .370295-.0712106.5696846-.2563581l6.3519837-5.61139373c-.3560529-.19938962-.7263479-.29908443-1.239064-.29908443h-11.36520859c-.49847406 0-.88301119.09969481-1.22482197.29908443l6.33774156 5.61139373c.1993897.1851475.3845372.2563581.5696847.2563581zm-7.61953206 3.8453713 4.68565616-4.6856562-4.69989828-4.15869785c-.07121058.17090539-.14242116.49847405-.14242116.91149545v7.007121c0 .3987793.05696847.6836216.15666328.9257376zm15.25330616 0c.0854527-.242116.1424212-.5412004.1424212-.9257376v-7.007121c0-.4130214-.0569685-.74059006-.1424212-.91149545l-4.6998982 4.15869785zm-13.45879955 1.1536114h11.66429295c.4557477 0 .8118006-.113937 1.0681587-.2706002l-4.8280773-4.8138352-.8402848.7548321c-.3987793.3418108-.7975585.5127162-1.2390641.5127162-.4272635 0-.8402849-.1709054-1.224822-.5127162l-.8545269-.7548321-4.82807736 4.8138352c.25635809.1709053.6266531.2706002 1.08240081.2706002z" xlink:href="#a"/></svg>