<svg fill="#ffb51b" height="28" viewBox="0 0 28 28" width="28" xmlns="http://www.w3.org/2000/svg" xmlns:xlink="http://www.w3.org/1999/xlink"><defs><path id="a" d="m0 0h28v28h-28z"/></defs><path d="m14 28c-1.930719 0-3.7424837-.3637255-5.43529412-1.0911765-1.69281046-.727451-3.17973856-1.7316993-4.46078431-3.0127451-1.28104575-1.2810457-2.28529412-2.7679738-3.0127451-4.4607843-.72745098-1.6928104-1.09117647-3.5045751-1.09117647-5.4352941s.36372549-3.7424837 1.09117647-5.43529412c.72745098-1.69281046 1.73169935-3.18202614 3.0127451-4.46764706 1.28104575-1.28562091 2.76797385-2.28986928 4.46078431-3.01274509 1.69281042-.72287582 3.50457512-1.08431373 5.43529412-1.08431373s3.7424837.36143791 5.4352941 1.08431373c1.6928105.72287581 3.1797386 1.72712418 4.4607843 3.01274509 1.2810458 1.28562092 2.2852941 2.7748366 3.0127451 4.46764706.727451 1.69281042 1.0911765 3.50457512 1.0911765 5.43529412s-.3637255 3.7424837-1.0911765 5.4352941c-.727451 1.6928105-1.7316993 3.1797386-3.0127451 4.4607843-1.2810457 1.2810458-2.7679738 2.2852941-4.4607843 3.0127451-1.6928104.727451-3.5045751 1.0911765-5.4352941 1.0911765zm0-2.3333333c1.6104575 0 3.1202614-.3019608 4.5294118-.9058824 1.4091503-.6039216 2.6490196-1.4411765 3.7196078-2.5117647s1.9078431-2.3104575 2.5117647-3.7196078c.6039216-1.4091504.9058824-2.9189543.9058824-4.5294118s-.3019608-3.122549-.9058824-4.53627451c-.6039216-1.41372549-1.4411765-2.65359477-2.5117647-3.71960784s-2.3104575-1.9009804-3.7196078-2.50490196c-1.4091504-.60392157-2.9189543-.90588236-4.5294118-.90588236s-3.1202614.30196079-4.52941176.90588236c-1.40915033.60392156-2.64901961 1.43888889-3.71960785 2.50490196-1.07058823 1.06601307-1.90784314 2.30588235-2.5117647 3.71960784-.60392157 1.41372551-.90588236 2.92581701-.90588236 4.53627451s.30196079 3.1202614.90588236 4.5294118c.60392156 1.4091503 1.44117647 2.6490196 2.5117647 3.7196078 1.07058824 1.0705882 2.31045752 1.9078431 3.71960785 2.5117647 1.40915036.6039216 2.91895426.9058824 4.52941176.9058824zm-3.2666667-4.282353c-.75947709 0-1.32908493-.1944444-1.7088235-.5833333-.37973856-.3888889-.56960784-.9676471-.56960784-1.7362745v-10.50000002c0-.76862745.18986928-1.3496732.56960784-1.74313725.37973857-.39346405.94934641-.59019608 1.7088235-.59019608h2.6078432v5.53137255c0 .9333333.4620915 1.4 1.3862745 1.4h5.4490196v5.9019608c0 .7594771-.1898693 1.3359477-.5696079 1.7294117-.3797385.3934641-.9493464.5901961-1.7088235.5901961zm4.1176471-9.3333333c-.2653595 0-.3980392-.1326797-.3980392-.3980392v-5.33921571c.1464052.02745098.2996732.09379085.4598039.19901961s.3271242.2493464.5009804.43235294l4.0627451 4.14509806c.1738562.1738562.3133987.3385621.4186274.4941176.1052288.1555556.1715687.3111111.1990196.4666667z" xlink:href="#a"/></svg>