<svg fill="#ffb51b" height="28" viewBox="0 0 28 28" width="28" xmlns="http://www.w3.org/2000/svg" xmlns:xlink="http://www.w3.org/1999/xlink"><defs><path id="a" d="m0 0h28v28h-28z"/></defs><path d="m14 28c-1.930719 0-3.7424837-.3637255-5.43529412-1.0911765-1.69281046-.727451-3.17973856-1.7316993-4.46078431-3.0127451-1.28104575-1.2810457-2.28529412-2.7679738-3.0127451-4.4607843-.72745098-1.6928104-1.09117647-3.5045751-1.09117647-5.4352941s.36372549-3.7424837 1.09117647-5.43529412c.72745098-1.69281046 1.73169935-3.18202614 3.0127451-4.46764706 1.28104575-1.28562091 2.76797385-2.28986928 4.46078431-3.01274509 1.69281042-.72287582 3.50457512-1.08431373 5.43529412-1.08431373s3.7424837.36143791 5.4352941 1.08431373c1.6928105.72287581 3.1797386 1.72712418 4.4607843 3.01274509 1.2810458 1.28562092 2.2852941 2.7748366 3.0127451 4.46764706.727451 1.69281042 1.0911765 3.50457512 1.0911765 5.43529412s-.3637255 3.7424837-1.0911765 5.4352941c-.727451 1.6928105-1.7316993 3.1797386-3.0127451 4.4607843-1.2810457 1.2810458-2.7679738 2.2852941-4.4607843 3.0127451-1.6928104.727451-3.5045751 1.0911765-5.4352941 1.0911765zm0-2.3333333c1.6104575 0 3.1202614-.3019608 4.5294118-.9058824 1.4091503-.6039216 2.6490196-1.4411765 3.7196078-2.5117647s1.9078431-2.3104575 2.5117647-3.7196078c.6039216-1.4091504.9058824-2.9189543.9058824-4.5294118s-.3019608-3.122549-.9058824-4.53627451c-.6039216-1.41372549-1.4411765-2.65359477-2.5117647-3.71960784s-2.3104575-1.9009804-3.7196078-2.50490196c-1.4091504-.60392157-2.9189543-.90588236-4.5294118-.90588236s-3.1202614.30196079-4.52941176.90588236c-1.40915033.60392156-2.64901961 1.43888889-3.71960785 2.50490196-1.07058823 1.06601307-1.90784314 2.30588235-2.5117647 3.71960784-.60392157 1.41372551-.90588236 2.92581701-.90588236 4.53627451s.30196079 3.1202614.90588236 4.5294118c.60392156 1.4091503 1.44117647 2.6490196 2.5117647 3.7196078 1.07058824 1.0705882 2.31045752 1.9078431 3.71960785 2.5117647 1.40915036.6039216 2.91895426.9058824 4.52941176.9058824zm-3.1980392-8.5235294c-1.10718956-1.1163399-2.03137256-2.2921569-2.77254904-3.527451-.74117647-1.2352941-1.1117647-2.3928105-1.1117647-3.472549 0-.98823534.3248366-1.78888893.9745098-2.40196083.21960785-.21045752.46895425-.39803922.74803922-.5627451s.54673202-.24705882.80294117-.24705882c.20130719 0 .38202615.07091503.54215687.2127451.16013068.14183006.32712418.34084967.50098038.59705882l1.2764706 1.77058824c.1464052.20130719.2470588.38431372.3019608.54901959.0549019.1647059.0823529.3202615.0823529.4666667 0 .2379085-.0869281.4986928-.2607843.7823529l-.7 1.2215686c-.0732026.1281046-.1098039.2196079-.1098039.2745099 0 .0640522.0091503.1258169.027451.1852941.0183006.0594771.0320261.1075163.0411764.1441176.1555556.2836601.3683007.6039216.6382353.9607843.2699347.3568628.5833334.7091504.9401961 1.0568628.3568628.366013.7228758.6954248 1.0980392.9882353.3751634.2928104.7137255.5078431 1.0156863.645098.1555556.0640523.279085.0960784.3705882.0960784.0915033 0 .1967321-.0320261.3156863-.0960784l1.2215686-.672549c.2013072-.1098039.3591504-.180719.4735295-.2127451.114379-.0320262.2264705-.0480392.3362745-.0480392.1464052 0 .2836601.0228758.4117647.0686274.1281045.0457517.3111111.1509804.5490196.3156863l1.8392157 1.3313726c.4666666.3294117.7.6496732.7.9607843 0 .2104575-.0526144.4346405-.1578432.672549-.1052287.2379085-.2996732.5124183-.5833333.8235294-.2928105.3202614-.6496732.574183-1.0705882.7617647-.4209151.1875817-.8830066.2813726-1.3862746.2813726-.7228758 0-1.4869281-.1715687-2.2921568-.5147059-.8052288-.3431373-1.6150327-.8120915-2.4294118-1.4068628-.8143791-.5947712-1.5921568-1.2627451-2.3333333-2.0039215z" xlink:href="#a"/></svg>