<svg height="32" viewBox="0 0 32 32" width="32" xmlns="http://www.w3.org/2000/svg" xmlns:xlink="http://www.w3.org/1999/xlink"><defs><path id="a" d="m0 0h32v32h-32z"/><linearGradient id="b" x1="46.106599%" x2="60.299585%" y1="50.327856%" y2="59.344534%"><stop offset="0" stop-color="#fcb37e"/><stop offset="1" stop-color="#8c6239"/></linearGradient><linearGradient id="c"><stop offset="0" stop-color="#8c6239" stop-opacity="0"/><stop offset="1" stop-color="#8c6239"/></linearGradient><linearGradient id="d" x1="50.18468%" x2="41.981241%" xlink:href="#c" y1="48.126013%" y2="79.320582%"/><linearGradient id="e" x1="53.619648%" x2="86.331724%" xlink:href="#c" y1="53.215723%" y2="63.606271%"/><linearGradient id="f" x1="32.97796%" x2="83.479832%" y1="30.815454%" y2="68.763961%"><stop offset="0" stop-color="#ff5c0a"/><stop offset="1" stop-color="#e14b00"/></linearGradient><linearGradient id="g"><stop offset="0" stop-color="#f82814" stop-opacity="0"/><stop offset="1" stop-color="#c0272d"/></linearGradient><linearGradient id="h" x1="40.492667%" x2="27.686312%" xlink:href="#g" y1="56.748066%" y2="75.716002%"/><linearGradient id="i" x1="54.697947%" x2="65.909906%" xlink:href="#g" y1="53.205924%" y2="70.206781%"/><linearGradient id="j" x1="46.532621%" x2="82.456867%" xlink:href="#g" y1="40.818235%" y2="73.592534%"/><linearGradient id="k" x1="51.886213%" x2="60.330517%" xlink:href="#g" y1="59.458726%" y2="85.11197%"/><linearGradient id="l"><stop offset="0" stop-color="#ffdecf"/><stop offset="1" stop-color="#faa68e"/></linearGradient><linearGradient id="m" x1="4.113721%" x2="93.051171%" xlink:href="#l" y1="45.384085%" y2="51.206097%"/><linearGradient id="n"><stop offset="0" stop-color="#faa68e" stop-opacity="0"/><stop offset="1" stop-color="#faa68e"/></linearGradient><linearGradient id="o" x1="55.682088%" x2="50.855193%" xlink:href="#n" y1="63.107933%" y2="42.146213%"/><linearGradient id="p" x1="27.641346%" x2="67.799196%" xlink:href="#l" y1="-4.798348%" y2="93.621418%"/><linearGradient id="q" x1="27.641346%" x2="67.797729%" xlink:href="#l" y1="-4.798348%" y2="93.621418%"/><linearGradient id="r" x1="50.408804%" x2="72.76153%" xlink:href="#l" y1="50.697213%" y2="88.808054%"/><linearGradient id="s" x1="44.859296%" x2="27.973453%" y1="36.247501%" y2="-8.926185%"><stop offset="0" stop-color="#ffdaaa" stop-opacity="0"/><stop offset="1" stop-color="#fff"/></linearGradient><linearGradient id="t" x1="56.110889%" x2="50.940137%" xlink:href="#n" y1="89.472347%" y2="51.567426%"/><linearGradient id="u" x1="50.001029%" x2="50.001029%" xlink:href="#n" y1="56.372455%" y2="94.022755%"/><linearGradient id="v" x1="47.839994%" x2="62.967126%" y1="41.538614%" y2="61.53134%"><stop offset="0" stop-color="#fcb37e"/><stop offset=".1704" stop-color="#f0aa76"/><stop offset=".4808" stop-color="#cf9362"/><stop offset=".8934" stop-color="#9b6d42"/><stop offset="1" stop-color="#8c6239"/></linearGradient><linearGradient id="w" x1="49.999993%" x2="49.999993%" xlink:href="#c" y1="149.030768%" y2="61.614554%"/><linearGradient id="x" x1="67.014016%" x2="109.808552%" xlink:href="#c" y1="50.091339%" y2="51.56732%"/><linearGradient id="y" x1="75.150114%" x2="42.120557%" xlink:href="#c" y1="56.91172%" y2="40.600844%"/><linearGradient id="z" x1="13.893245%" x2="111.212473%" y1="40.270728%" y2="63.274917%"><stop offset="0" stop-color="#fcb37e"/><stop offset=".6265" stop-color="#b78154"/><stop offset="1" stop-color="#8c6239"/></linearGradient><linearGradient id="A" x1="50.478429%" x2="59.677205%" xlink:href="#c" y1="46.311247%" y2="64.550654%"/><linearGradient id="B" x1="44.79834%" x2="6.507666%" xlink:href="#c" y1="64.137657%" y2="246.011004%"/><linearGradient id="C" x1="41.349174%" x2="98.228442%" xlink:href="#c" y1="47.31427%" y2="109.572555%"/><linearGradient id="D" x1="15.743035%" x2="71.360158%" y1="49.237765%" y2="49.986777%"><stop offset="0" stop-color="#ffbf1e"/><stop offset=".3043" stop-color="#ffbe1b"/><stop offset=".8558" stop-color="#ff981e"/><stop offset="1" stop-color="#ff9700"/></linearGradient><linearGradient id="E" x1="49.99998%" x2="49.99998%" y1="27.619223%" y2="239.108672%"><stop offset="0" stop-color="#e87264" stop-opacity="0"/><stop offset="1" stop-color="#ff7044"/></linearGradient><linearGradient id="F" x1="50.00225%" x2="50.00225%" xlink:href="#n" y1="76.921101%" y2="27.043846%"/><linearGradient id="G" x1="50.537954%" x2="63.450372%" y1="42.273918%" y2="57.457465%"><stop offset="0" stop-color="#873d3b"/><stop offset=".8558" stop-color="#330d0c"/><stop offset="1" stop-color="#1d1d1f"/></linearGradient></defs><g fill="none" fill-rule="evenodd" transform="translate(0 -.0005)" xlink:href="#a"><path d="m23.285905 27.398038h-14.57176568c-3.19843435 0-6.18251295 2.3412024-6.6987077 5.4295822l-.42740577 2.5572733c-.05658121.3386121.18222052.6151065.53382197.6151065h27.75642128c.3516014 0 .5714702-.3899298.5149615-.7276243l-.4086179-2.4447555c-.5161947-3.0883798-3.5003459-5.4295822-6.6987077-5.4295822z" fill="url(#b)"/><path d="m15.9999859 36h13.8782106c.3516015 0 .5714703-.3899298.5149616-.7276243l-.4086179-2.4447555c-.5161948-3.0883798-3.5003459-5.4295822-6.6987077-5.4295822h-7.2858466z" fill="url(#d)"/><path d="m21.8787013 27.9672621h-13.63280778c-2.99234817 0-5.78615431 2.2020023-6.26948843 5.0939348l-.39563324 2.367179c-.05259151.3147532.16923585.5716241.49573846.5716241h25.73509369c.3516015 0 .5970044-.2764944.5484025-.6151065l-.3331037-2.3236966c-.4144211-2.8919325-3.1558534-5.0939348-6.1482015-5.0939348z" fill="url(#e)"/><g transform="translate(6.7225 22.8962)"><g fill-rule="nonzero"><path d="m18.0566965 3.49408605-.9903163-.69790662v-.62343596c0-.52595349-.4859455-.99056575-1.1988688-1.14621297l-2.8968855-.63254185c-2.4056445-.5253182-4.98059746-.5253182-7.38624199 0l-2.8968855.63254185c-.71285073.15564722-1.19879629.62025948-1.19879629 1.14621297v.62343596l-.99031629.69790662c-.41558175.29287089-.58634094.71562428-.45489844 1.11931883.53933502 1.65621351 2.51684837 6.56068932 8.8894887 8.44151482.22008641.0649412.4689712.0649412.68905761 0 6.3726403-1.8808255 8.3502262-6.78530131 8.8894887-8.44151482.131515-.40369455-.0392442-.82651852-.4548259-1.11931883zm-4.8941297-.18303549c-.9594868 1.40795443-2.6884055 2.4014143-3.47517455 2.80249708-.24467747.12472954-.57495216.12472954-.81970217 0-.78676901-.40108278-2.51568773-1.39454265-3.47517451-2.80249708-.43654581-.64058891-.27013901-1.41007208.4468465-1.90983731.64052833-.44647106 1.70418257-.86724798 3.4381791-.86724798s2.79765073.42077692 3.43817913.86724798c.7169855.49969464.8833923 1.26917781.4468465 1.90983731z" fill="url(#f)"/><path d="m18.056624 3.49401546-.9902438-.69776545v-.62336536c0-.52588291-.4859455-.99063634-1.1990139-1.14642474l-2.5843831-.56435354-.3124299-.06811772c-2.4058621-.52517702-4.98037978-.52517702-7.38624193 0l-.31242984.06811772-2.58438312.56435354c-.71306835.15585899-1.19901391.62061242-1.19901391 1.14642474v.62336536l-.99024375.69776545c-.08327594.05872947-.15719421.12296483-.22015895.19115314.79286237 2.0427551 2.98357083 6.11111234 8.65467667 7.7848318.22015895.0650118.46904374.0650118.68920269 0 5.67110584-1.67371946 7.86181434-5.74214729 8.65467664-7.7848318-.0628196-.06811772-.1367379-.13242367-.2200138-.19115314zm-4.8941298-.18310608c-.9594868 1.4081662-2.6885506 2.40162607-3.47495687 2.80277943-.24496763.12472955-.57516978.12472955-.82013741 0-.78640631-.40115336-2.51547011-1.39454265-3.47495689-2.80277943-.33622297-.49305934-.3148962-1.06256583.04018717-1.52661338.10561826-.13870603.24148571-.26802381.40658679-.38294158.64067341-.44654165 1.70425511-.86724797 3.43825164-.86724797 1.73399647 0 2.79757827.42070632 3.43825167.86724797.165101.11498836.3009685.24423555.4065867.38294158.3550834.46404755.3764102 1.03355404.0401872 1.52661338z" fill="url(#h)"/><path d="m18.056624 3.49401546-.9902438-.69776545v-.62336536c0-.52588291-.4859455-.99063634-1.1990139-1.14642474l-2.5843831-.56435354-.3124299-.06811772c-2.4058621-.52517702-4.98037978-.52517702-7.38624193 0l-.31242984.06811772-2.58438312.56435354c-.71306835.15585899-1.19901391.62061242-1.19901391 1.14642474v.62336536l-.99024375.69776545c-.08327594.05872947-.15719421.12296483-.22015895.19115314.79286237 2.0427551 2.98357083 4.51864007 8.65467667 6.19243007.22015895.06501184.46904374.06501184.68920269 0 5.67110584-1.67371941 7.86181434-4.14967497 8.65467664-6.19243007-.0628196-.06811772-.1367379-.13242367-.2200138-.19115314zm-4.8941298-.18310608c-.9594868 1.4081662-2.6885506 2.40162607-3.47495687 2.80277943-.24496763.12472955-.57516978.12472955-.82013741 0-.78640631-.40115336-2.51547011-1.39454265-3.47495689-2.80277943-.33622297-.49305934-.3148962-1.06256583.04018717-1.52661338.10561826-.13870603.24148571-.26802381.40658679-.38294158.64067341-.44654165 1.70425511-.86724797 3.43825164-.86724797 1.73399647 0 2.79757827.42070632 3.43825167.86724797.165101.11498836.3009685.24423555.4065867.38294158.3550834.46404755.3764102 1.03355404.0401872 1.52661338z" fill="url(#i)"/><path d="m17.0663802 2.79625001v-.62336536c0-.52588291-.4859455-.99063634-1.1990139-1.14642474l-2.896813-.63247126c-.4799972-.10482364-.9664506-.18868255-1.4573289-.25157673-1.4781479-.18974138-2.99350877-.18974138-4.47165666 0-.49087829.06289418-.97733163.14675309-1.45732891.25157673l-2.89681296.63247126c-.71306835.15585899-1.19901391.62061242-1.19901391 1.14642474v.62336536l-.00195858.00141177c1.28374064 1.98091974 3.53893718 4.27066334 7.44623255 5.42379397.22015895.06501183.46904374.06501183.68920269 0 3.90736788-1.15313063 6.16249188-3.44287423 7.44630508-5.42379397zm-3.903886.51465937c-.9594868 1.4081662-2.6885506 2.40162607-3.47495687 2.80277943-.24496763.12472955-.57516978.12472955-.82013741 0-.78640631-.40115336-2.51547011-1.39454265-3.47495689-2.80277943-.43632819-.64051832-.27028409-1.4099309.44677396-1.90962555.43088769-.30014149 1.0527007-.58877709 1.9408081-.74534196.43291881-.07687067.9292376-.1219766 1.49751608-.1219766.56827847 0 1.06459723.04510593 1.49744353.1219766.8881074.15656487 1.5099204.44520047 1.9408081.74534196.7169855.49969465.8831021 1.26910723.4467014 1.90962555z" fill="url(#j)"/></g><path d="m18.0566965 3.49408605-.9903163-.69790662v-.62343596c0-.52595349-.4859455-.99056575-1.1987963-1.14621297l-.3398499-.07418832c.0339487.09465893.0520111.1932708.0520111.29421208v.62343595l.9903163.69790662c.4155818.2928709.586341.71562429.4548985 1.11931883-.45323 1.3918603-1.9222379 5.07777007-6.1618391 7.33525484-1.81262988.9651539-4.32287711.9679069-6.13645003.0036-.00899496-.0048-.01806246-.0096-.02705742-.0144 1.13307503.8174832 2.52439253 1.5386839 4.23162178 2.0427551.22066673.065153.47020438.0656471.69087111.0004941 6.37264036-1.8808255 8.35015366-6.78530131 8.88948866-8.44151482.1314425-.40369455-.0393167-.82651852-.4548984-1.11931883z" fill="url(#k)"/></g><g transform="translate(11.8755 24.8492)"><path d="m8.24903291 0v.61856536c0 .25080027-.07892354.50371818-.23959968.73976549-.93757969 1.37520145-2.60926434 2.35517896-3.41939123 2.77362646-.01878786.00988236-.03764827.01976472-.05571073.02887062-.24467747.12472954-.57480708.12472954-.81955709 0-.78698663-.4015769-2.51583281-1.3948956-3.47510197-2.80249708-.16074867-.23604731-.23967221-.48889464-.23967221-.73976549v-.61856536z" fill="url(#m)"/><path d="m8.24903291 0v.61856536c0 .25080027-.07892354.50371818-.23959968.73976549-.93757969 1.37520145-2.60926434 2.35517896-3.41939123 2.77362646l-4.55892233-3.78318047-.03111967-.02604709v-.32265916h8.24903291z" fill="url(#o)"/></g><g transform="translate(5.1603 .9962)"><ellipse cx="2.472381" cy="14.13545" fill="url(#p)" rx="2.472381" ry="2.405861"/><ellipse cx="19.207145" cy="14.13545" fill="url(#q)" rx="2.472381" ry="2.405861"/><path d="m10.8397995 24.926144c-4.63516184 0-8.39273463-3.6564745-8.39273463-8.1669263v-8.59229142c0-4.51045183 3.75757279-8.16692628 8.39273463-8.16692628 4.6351619 0 8.3927347 3.65647445 8.3927347 8.16692628v8.59229142c0 4.5104518-3.7575728 8.1669263-8.3927347 8.1669263z" fill="url(#r)"/><path d="m10.8397995 23.9533665c-4.27340479 0-7.73769829-3.3710859-7.73769829-7.5295138v-7.92163195c0-4.15842792 3.4642935-7.52951384 7.73769829-7.52951384 4.2734049 0 7.7376984 3.37108592 7.7376984 7.52951384v7.92163195c0 4.1584279-3.4643661 7.5295138-7.7376984 7.5295138z" fill="url(#s)"/><path d="m12.7235187 24.7194614c3.7281215-.8319538 6.508943-4.0800749 6.508943-7.9602437v-8.59229142c0-4.51045183-3.7575728-8.16692628-8.3927347-8.16692628-4.63516188 0-8.39273467 3.65647445-8.39273467 8.16692628v6.55257162z" fill="url(#t)"/><path d="m11.3165325 19.0821378h-.9535385c-.76420903 0-1.35954494-.6449654-1.27779234-1.3843073l.49856752-4.5098166h2.51198822l.4985675 4.5098166c.0817526.7393419-.5135833 1.3843073-1.2777924 1.3843073z" fill="url(#u)"/></g><g transform="translate(0 4.6202)"><path d="m31.1644035.29033313c-1.5489469-.95054218-4.4554077.71809488-5.9453071 1.23755425-2.9819749 1.03962463-6.0724697 1.69983709-9.21824 1.69983709-3.146133 0-6.2360475-.66007128-9.21824007-1.69983709-1.47132912-.51296525-4.40216336-2.19741409-5.94537964-1.23755425-2.14268697 1.33277788.38729114 5.31487621 1.37876807 6.54967751 3.24899474 4.04619256 8.64024124 6.08725346 13.78485164 6.08725346 5.1444653 0 10.5359294-2.0411315 13.7847791-6.08725346.994451-1.23840131 3.5163047-5.23793494 1.378768-6.54967751z" fill="url(#v)"/><path d="m29.785708 6.20408056c-3.2488497 4.04612194-8.6403137 6.08725354-13.7847791 6.08725354-5.1446104 0-10.53585686-2.041061-13.7848516-6.08732413-.66686036-.83047147-2.02966962-2.90386189-2.19861532-4.57800484-.201226 1.74339008 1.44405408 4.27426334 2.19861532 5.21400551 3.2489222 4.04619256 8.6402412 6.08725346 13.7848516 6.08725346 5.1444654 0 10.5359294-2.0411315 13.7847791-6.08725346.75681-.94249511 2.3978102-3.48402721 2.1968018-5.2231114-.1687281 1.67301353-1.5281279 3.75438044-2.1968018 4.58718132z" fill="url(#w)"/><path d="m31.1644761.29033313c-.5938126-.36437685-1.3872553-.34362389-2.2237867-.15049427.175039 1.73802536-1.4489143 4.25160449-2.2005739 5.18774666-3.2489222 4.04612192-8.6403138 6.08725348-13.7847791 6.08725348-2.3590013 0-4.76936093-.4304475-7.0017799-1.2853425 2.96804726 1.8605666 6.5638558 2.797697 10.047445 2.797697 5.1444653 0 10.5359294-2.0411315 13.784779-6.08725345.994306-1.23833072 3.5161597-5.23786435 1.3786956-6.54960692z" fill="url(#x)"/></g><path d="m31.2231609 9.18780696c-.4762252.95428334-1.064162 1.80769604-1.4375254 2.27230824-3.2489222 4.0465455-8.6399511 6.0876771-13.7850693 6.0876771-.9242323 0-1.8565891-.0657178-2.7827075-.1976473l-6.09502969-5.8010179c-.50255723-.4150593-.71401137-1.0773188-.51887873-1.69842532l1.29592737-3.33303882c2.70429175.8659068 5.26778335 1.33009552 8.10076115 1.33009552 3.1460604 0 6.2361925-.65985952 9.2184576-1.69955474.734105-.25560027 1.8120496-.79065965 2.9019633-1.15376592 1.1224842-.37383569 2.2575904-.56611825 3.0431262-.08364715 1.3358244.81931852.8527079 2.68786167.058975 4.27701629z" fill="url(#y)"/><g transform="translate(6.5318)"><path d="m12.3349982.18603274-.2402526.09592951c-1.6800993.67080071-3.57295842.67080071-5.25305771 0l-.24025253-.09592951c-1.36846738-.54635352-2.93272027.15670605-3.35882032 1.50967218l-3.1704339 8.15520862c-.21979625.69804776.07428097 1.45009566.72010473 1.84157846l.87751656.5318829c4.7575369 2.8835324 10.83929177 2.8835324 15.59682867 0l.8775166-.5318829c.6458237-.3914122.9399009-1.1435307.7201047-1.84157846l-3.1704339-8.15520862c-.4261001-1.35296613-1.990353-2.0560257-3.3588203-1.50967218z" fill="url(#z)"/><path d="m13.5581679.5304331c0-.17971783-.0302492-.35498861-.087048-.5241182-.3752495-.02470591-.7629034.0307765-1.1361217.17978843l-.2402526.09592951c-1.6800993.67080071-3.57295842.67080071-5.25305771 0l-.24025253-.09592951c-.37321838-.14901193-.76087222-.20442375-1.13612172-.17978843-.05679883.16920018-.08712055.34447095-.08712055.5241182 0 1.40689561 1.8311276 2.54746152 4.08995113 2.54746152 2.25882358 0 4.09002368-1.14056591 4.09002368-2.54746152z" fill="url(#A)"/><path d="m17.2666311 12.2243749.8775166-.5318829c.6458237-.3914122.9399009-1.1435307.7201047-1.84157846l-3.1704339-8.15520862c-.4260275-1.35296613-1.9902804-2.05609629-3.3588203-1.50967218l-.2402526.09592951c-.8400859.33536506-1.7332711.50308289-2.62652884.50308289v13.60194376c2.70980484 0 5.41968214-.7208478 7.79841434-2.162614z" fill="url(#B)"/><path d="m18.8642524 9.85091354-3.1704339-8.15520862c-.3793118-1.20444833-1.660586-1.89296671-2.9027613-1.64435468.0034094.0103059.0073266.02025885.0105909.03063533l2.2858809 5.32722916c.7940956 2.51527325-.4644737 5.21774667-2.9714566 6.31539487-.0499801.0218824-.0945922.0403766-.133256.0551295-3.66501174 1.4001191-7.7907251 1.3200014-11.40314532-.2401414.06593888.0553412.13659285.1068001.21254225.1528237l.87751656.5318829c4.7575369 2.8835324 10.83929181 2.8835324 15.59690121 0l.8775166-.5318829c.6458237-.3913416.9399009-1.1434601.7201047-1.84150786z" fill="url(#C)"/></g><path d="m24.9669473 8.48848857c-.0368503-.11696483-.1806246-.16475311-.2887818-.0990354-.0007254.00049412-.0015233.00091765-.0022487.00141177l-.8775166.53188291c-4.7575369 2.88360305-10.8392917 2.88360305-15.59690117 0l-.87751656-.53188291c-.0007254-.00049412-.00152334-.00091765-.00224874-.00141177-.10815717-.0657883-.25193148-.01800002-.2887818.0990354l-.42900165 1.36242497c-.21979625.69804776.07428097 1.45009566.72010473 1.84150786l.87751656.5318829c4.75753693 2.8835324 10.83929173 2.8835324 15.59690123 0l.8775165-.5318829c.6458238-.3914122.939901-1.1435307.7201048-1.84157845z" fill="url(#D)"/><path d="m24.8881689 8.2383236c-.0658664.05527065-.1364478.10658835-.2122521.15254134l-.8775166.53188291c-2.3788047 1.44176625-5.0886095 2.16219055-7.7984143 2.16211995v3.3021211c2.7098048 0 5.4196822-.7208478 7.7984143-2.1626846l.8775166-.5318829c.6458238-.3914122.939901-1.1435307.7201047-1.84157845z" fill="url(#E)"/><path d="m17.791144 23.5909281c-.5647241.2698591-1.1779048.4044004-1.7911581.4044004-.6131807 0-1.226434-.1345413-1.7911581-.4044004-.4076023-.1944708-.6269633-.5847536-.6269633-.9806834 0-.2747297.1056908-.5523536.3279534-.7686361.2099308-.2042826.4952307-.3191298.7920644-.3191298h2.5962072c.1484168 0 .2939321.0288706.4285664.083153.1346343.0542119.2584601.1338355.3634255.2359768.2222626.2162825.3279534.4938358.3279534.7686361.0000725.3959298-.2192885.7862126-.6268908.9806834z" fill="url(#F)"/><path d="m23.729995 20.5805484c-.3388344.2733179-.6646116.4734358-.9686994.6192713-.9158177.4410357-2.0126952.3198356-2.8235475-.2860239-.3938198-.2944944-.8318164-.5212946-1.2959274-.6741889-.4640385-.1536002-.9534659-.2332238-1.449422-.2332238h-2.4738322c-.9665231 0-1.8910456.3360709-2.657721.9088245-.8101269.6051536-1.9062066.7249419-2.82209679.2846121-.30408775-.1458355-.62986495-.3458828-.96869936-.6192713-.19041754-.1536002-.46621468.0302824-.38591289.2578591.54151122 1.5217428 2.21827364 4.751158 6.99800784 6.4265009.7232965.2536238 1.5123867.2536238 2.2356832 0 4.7797342-1.6752723 6.4564966-4.9047581 6.9980078-6.4265009.0803744-.2275767-.1954953-.4113887-.3858403-.2578591zm-5.938851 3.0103797c-.5647241.2698591-1.1779048.4044004-1.7911581.4044004-.6131807 0-1.226434-.1345413-1.7911581-.4044004-.4076023-.1944708-.6269633-.5847536-.6269633-.9806834 0-.2747297.1056908-.5523536.3279534-.7686361.2099308-.2042826.4952307-.3191298.7920644-.3191298h2.5962072c.1484168 0 .2939321.0288706.4285664.083153.1346343.0542119.2584601.1338355.3634255.2359768.2222626.2162825.3279534.4938358.3279534.7686361.0000725.3959298-.2192885.7862126-.6268908.9806834z" fill="url(#G)" fill-rule="nonzero"/></g></svg>