<svg fill="#540907" height="24" viewBox="0 0 24 24" width="24" xmlns="http://www.w3.org/2000/svg" xmlns:xlink="http://www.w3.org/1999/xlink"><defs><path id="a" d="m0 0h24v24h-24z"/></defs><path d="m3.1510286 17.9785156c-1.05034287 0-1.83810002-.2522786-2.36327145-.7568359s-.78775715-1.2613932-.78775715-2.2705078v-11.92382815c0-1.00911458.26258572-1.76595052.78775715-2.27050781s1.31292858-.75683594 2.36327145-.75683594h13.7079779c1.0503429 0 1.8364275.25227865 2.3582539.75683594s.7827396 1.26139323.7827396 2.27050781v11.92382815c0 1.0091146-.2609132 1.7659505-.7827396 2.2705078s-1.307911.7568359-2.3582539.7568359zm-.15052684-1.5722656h13.98896134c.4482355 0 .7927747-.1155599 1.0336177-.3466797.2408429-.2311198.3612644-.5712891.3612644-1.0205078v-9.20898438c0-.44921874-.1204215-.78938802-.3612644-1.02050781-.240843-.23111979-.5853822-.34667969-1.0336177-.34667969h-13.98896134c-.44154541 0-.78273959.1155599-1.02358254.34667969s-.36126443.57128907-.36126443 1.02050781v9.20898438c0 .4492187.12042148.789388.36126443 1.0205078s.58203713.3466797 1.02358254.3466797zm5.04766683-8.42773438c-.17394213 0-.29603613-.03255208-.36628199-.09765624-.07024586-.06510417-.10536879-.18229167-.10536879-.3515625v-.57617188c0-.16927083.03512293-.28483073.10536879-.34667969s.19233986-.09277343.36628199-.09277343h.59207225c.17394213 0 .29603613.03092447.36628199.09277343s.10536879.17740886.10536879.34667969v.57617188c0 .16927083-.03512293.28645833-.10536879.3515625-.07024586.06510416-.19233986.09765624-.36628199.09765624zm3.33166081 0c-.1739421 0-.2943636-.03255208-.3612644-.09765624-.0669008-.06510417-.1003513-.18229167-.1003513-.3515625v-.57617188c0-.16927083.0334505-.28483073.1003513-.34667969s.1873223-.09277343.3612644-.09277343h.5920723c.1806322 0 .3043987.03092447.3712995.09277343s.1003512.17740886.1003512.34667969v.57617188c0 .16927083-.0334504.28645833-.1003512.3515625-.0669008.06510416-.1906673.09765624-.3712995.09765624zm3.3416959 0c-.1806322 0-.3043987-.03255208-.3712995-.09765624-.0669008-.06510417-.1003512-.18229167-.1003512-.3515625v-.57617188c0-.16927083.0334504-.28483073.1003512-.34667969s.1906673-.09277343.3712995-.09277343h.5820372c.1806322 0 .3043987.03092447.3712995.09277343s.1003512.17740886.1003512.34667969v.57617188c0 .16927083-.0334504.28645833-.1003512.3515625-.0669008.06510416-.1906673.09765624-.3712995.09765624zm-10.00501752 3.19335938c-.18063222 0-.30439873-.0325521-.37129955-.0976562-.06690082-.0651042-.10035123-.1822917-.10035123-.3515626v-.5664062c0-.17578125.03345041-.29459635.10035123-.35644531s.19066733-.09277344.37129955-.09277344h.59207225c.17394213 0 .29436361.03092448.36126443.09277344s.10035122.18066406.10035122.35644531v.5664062c0 .1692709-.0334504.2864584-.10035122.3515626-.06690082.0651041-.1873223.0976562-.36126443.0976562zm3.33166081 0c-.17394213 0-.29603613-.0325521-.36628199-.0976562-.07024586-.0651042-.10536879-.1822917-.10536879-.3515626v-.5664062c0-.17578125.03512293-.29459635.10536879-.35644531s.19233986-.09277344.36628199-.09277344h.59207225c.17394213 0 .29603613.03092448.36628199.09277344s.10536879.18066406.10536879.35644531v.5664062c0 .1692709-.03512293.2864584-.10536879.3515626-.07024586.0651041-.19233986.0976562-.36628199.0976562zm3.33166081 0c-.1739421 0-.2943636-.0325521-.3612644-.0976562-.0669008-.0651042-.1003513-.1822917-.1003513-.3515626v-.5664062c0-.17578125.0334505-.29459635.1003513-.35644531s.1873223-.09277344.3612644-.09277344h.5920723c.1806322 0 .3043987.03092448.3712995.09277344s.1003512.18066406.1003512.35644531v.5664062c0 .1692709-.0334504.2864584-.1003512.3515626-.0669008.0651041-.1906673.0976562-.3712995.0976562zm3.3416959 0c-.1806322 0-.3043987-.0325521-.3712995-.0976562-.0669008-.0651042-.1003512-.1822917-.1003512-.3515626v-.5664062c0-.17578125.0334504-.29459635.1003512-.35644531s.1906673-.09277344.3712995-.09277344h.5820372c.1806322 0 .3043987.03092448.3712995.09277344s.1003512.18066406.1003512.35644531v.5664062c0 .1692709-.0334504.2864584-.1003512.3515626-.0669008.0651041-.1906673.0976562-.3712995.0976562zm-10.00501752 3.1933594c-.18063222 0-.30439873-.0309245-.37129955-.0927735-.06690082-.0618489-.10035123-.180664-.10035123-.3564453v-.5664062c0-.1757813.03345041-.2945964.10035123-.3564453.06690082-.061849.19066733-.0927735.37129955-.0927735h.59207225c.17394213 0 .29436361.0309245.36126443.0927735.06690082.0618489.10035122.180664.10035122.3564453v.5664062c0 .1757813-.0334504.2945964-.10035122.3564453-.06690082.061849-.1873223.0927735-.36126443.0927735zm3.33166081 0c-.17394213 0-.29603613-.0309245-.36628199-.0927735-.07024586-.0618489-.10536879-.180664-.10536879-.3564453v-.5664062c0-.1757813.03512293-.2945964.10536879-.3564453.07024586-.061849.19233986-.0927735.36628199-.0927735h.59207225c.17394213 0 .29603613.0309245.36628199.0927735.07024586.0618489.10536879.180664.10536879.3564453v.5664062c0 .1757813-.03512293.2945964-.10536879.3564453-.07024586.061849-.19233986.0927735-.36628199.0927735zm3.33166081 0c-.1739421 0-.2943636-.0309245-.3612644-.0927735-.0669008-.0618489-.1003513-.180664-.1003513-.3564453v-.5664062c0-.1757813.0334505-.2945964.1003513-.3564453.0669008-.061849.1873223-.0927735.3612644-.0927735h.5920723c.1806322 0 .3043987.0309245.3712995.0927735.0669008.0618489.1003512.180664.1003512.3564453v.5664062c0 .1757813-.0334504.2945964-.1003512.3564453-.0669008.061849-.1906673.0927735-.3712995.0927735z" transform="translate(1.9531 2.9746)" xlink:href="#a"/></svg>