<svg height="20" viewBox="0 0 20 20" width="20" xmlns="http://www.w3.org/2000/svg"><path d="m9.97020408 0c-5.5132653 0-9.97020408 4.58333333-9.97020408 10.2535417 0 4.5325 2.85571429 8.3691666 6.81734694 9.7270833.49530612.1020833.67673469-.220625.67673469-.4920833 0-.2377084-.01632653-1.0525-.01632653-1.9014584-2.77346939.61125-3.35102041-1.2222916-3.35102041-1.2222916-.44571428-1.1883334-1.10612245-1.49375-1.10612245-1.49375-.9077551-.628125.06612245-.628125.06612245-.628125 1.00693878.0679166 1.53530613 1.0525 1.53530613 1.0525.89122449 1.5616666 2.32734694 1.1204166 2.90510204.84875.08244898-.6620834.34673469-1.1204167.62734694-1.375-2.21204082-.2377084-4.53938776-1.1204167-4.53938776-5.05895837 0-1.12041666.39591837-2.03708333 1.02326531-2.75-.09897959-.25458333-.44571429-1.30729166.09918367-2.71625 0 0 .84183674-.27166666 2.74 1.0525.81267119-.22444529 1.65076584-.33862202 2.49265306-.33958333.84183672 0 1.70000002.11895833 2.49244902.33958333 1.8983673-1.32416666 2.740204-1.0525 2.740204-1.0525.544898 1.40895834.1979592 2.46166667.0989796 2.71625.6438776.71291667 1.0234694 1.62958334 1.0234694 2.75 0 3.93854167-2.3273469 4.80416667-4.5559183 5.05895837.3632653.3225.6767346.9335416.6767346 1.90125 0 1.375-.0163265 2.4785416-.0163265 2.8179166 0 .2716667.1816327.594375.6767347.4925 3.9616327-1.3583333 6.8173915-5.1947916 6.8173915-9.7272916.016282-5.67020837-4.4569833-10.2535417-9.95371802-10.2535417z" fill="#24292f" fill-rule="evenodd"/></svg>